<svg xmlns="http://www.w3.org/2000/svg" fill="currentColor" viewBox="0 0 11 9"><path d="M10.664 3.099C9.953 1.942 8.337 0 5.5 0S1.047 1.942.336 3.1a2.28 2.28 0 0 0 0 2.365C1.047 6.621 2.663 8.563 5.5 8.563s4.453-1.942 5.164-3.099a2.28 2.28 0 0 0 0-2.365m-.781 1.885c-.61.993-1.992 2.663-4.383 2.663s-3.773-1.67-4.383-2.663a1.35 1.35 0 0 1 0-1.406C1.727 2.586 3.109.916 5.5.916s3.773 1.669 4.383 2.663a1.35 1.35 0 0 1 0 1.405"/><path d="M5.5 1.991a2.29 2.29 0 1 0 0 4.58 2.29 2.29 0 0 0 0-4.58m0 3.665a1.375 1.375 0 1 1 0-2.75 1.375 1.375 0 0 1 0 2.75"/></svg>