<svg xmlns="http://www.w3.org/2000/svg" fill="none" stroke="currentColor" stroke-linecap="round" stroke-linejoin="round" stroke-width="1.667" viewBox="0 0 20 20"><path d="M10.183 1.667h-.366A1.667 1.667 0 0 0 8.15 3.333v.15c0 .292-.077.58-.223.833a1.66 1.66 0 0 1-.61.609l-.358.208a1.67 1.67 0 0 1-1.667 0l-.125-.066a1.667 1.667 0 0 0-2.275.608l-.183.317a1.667 1.667 0 0 0 .608 2.275l.125.083a1.67 1.67 0 0 1 .832 1.437v.421a1.67 1.67 0 0 1-.222.837 1.66 1.66 0 0 1-.61.613l-.125.075a1.667 1.667 0 0 0-.608 2.275l.183.317a1.667 1.667 0 0 0 2.275.608l.125-.066a1.67 1.67 0 0 1 1.667 0l.358.208a1.663 1.663 0 0 1 .833 1.442v.15a1.667 1.667 0 0 0 1.667 1.666h.366a1.667 1.667 0 0 0 1.667-1.666v-.15a1.67 1.67 0 0 1 .833-1.442l.358-.208a1.67 1.67 0 0 1 1.667 0l.125.066a1.667 1.667 0 0 0 2.275-.608l.183-.325a1.667 1.667 0 0 0-.608-2.275l-.125-.067a1.66 1.66 0 0 1-.61-.613 1.67 1.67 0 0 1-.222-.837v-.417a1.67 1.67 0 0 1 .833-1.449l.125-.075a1.667 1.667 0 0 0 .608-2.275l-.183-.317a1.667 1.667 0 0 0-2.275-.608l-.125.066a1.67 1.67 0 0 1-1.667 0l-.358-.208a1.66 1.66 0 0 1-.61-.609 1.67 1.67 0 0 1-.223-.833v-.15a1.667 1.667 0 0 0-1.667-1.666"/><path d="M10 12.5a2.5 2.5 0 1 0 0-5 2.5 2.5 0 0 0 0 5"/></svg>