<svg xmlns="http://www.w3.org/2000/svg" viewBox="0 0 24 24" fill="currentColor"><path d="M23.9 11.437A12 12 0 0 0 0 13a11.88 11.88 0 0 0 3.759 8.712A4.84 4.84 0 0 0 7.113 23h9.767a5 5 0 0 0 3.509-1.429 11.94 11.94 0 0 0 3.51-10.134m-4.91 8.7a3 3 0 0 1-2.11.863H7.113c-.73.015-1.44-.25-1.981-.74A9.9 9.9 0 0 1 2 13a10.01 10.01 0 0 1 3.338-7.457A9.88 9.88 0 0 1 11.986 3q.589 0 1.174.066a9.994 9.994 0 0 1 5.83 17.076zM7.808 17.285a1 1 0 1 1-1.4 1.43 8 8 0 0 1 6.736-13.634 1 1 0 0 1 .847 1.133.99.99 0 0 1-1.133.848 6 6 0 0 0-5.05 10.223m12.112-5.428a8.1 8.1 0 0 1-.541 4.246 7.9 7.9 0 0 1-1.786 2.613 1.002 1.002 0 0 1-1.4-1.432 5.98 5.98 0 0 0 1.744-5.14 1 1 0 1 1 1.98-.287zm-5.993.631a2.033 2.033 0 1 1-1.414-1.414l3.78-3.78a1 1 0 1 1 1.415 1.413z"/></svg>
