<svg xmlns="http://www.w3.org/2000/svg" fill="currentColor" viewBox="0 0 11 10"><path fill-rule="evenodd" d="M2.273 0h6.364a2.276 2.276 0 0 1 2.273 2.273v5.454A2.275 2.275 0 0 1 8.637 10H2.273A2.276 2.276 0 0 1 0 7.727V2.273A2.275 2.275 0 0 1 2.273 0m6.364.91H2.273A1.364 1.364 0 0 0 .909 2.272v.454h9.092v-.454A1.364 1.364 0 0 0 8.637.909M2.273 9.09h6.364a1.364 1.364 0 0 0 1.364-1.363v-4.09H.909v4.09A1.364 1.364 0 0 0 2.273 9.09m6.23-3.314A.455.455 0 0 0 8.184 5H2.727a.455.455 0 0 0 0 .91h5.454a.46.46 0 0 0 .322-.134M6.687 7.594a.455.455 0 0 0-.322-.776H2.728a.455.455 0 0 0 0 .91h3.636a.46.46 0 0 0 .322-.134M2.35 1.566a.455.455 0 1 0 .755.505.455.455 0 0 0-.755-.505m1.363 0a.455.455 0 1 0 .756.505.455.455 0 0 0-.756-.505" clip-rule="evenodd"/><path d="M5 1.818a.455.455 0 1 1 .91 0 .455.455 0 0 1-.91 0"/></svg>